<?xml version="1.0" encoding="UTF-8" standalone="no" ?>
<!DOCTYPE svg PUBLIC "-//W3C//DTD SVG 1.1//EN" "http://www.w3.org/Graphics/SVG/1.1/DTD/svg11.dtd">
<svg xmlns="http://www.w3.org/2000/svg" xmlns:xlink="http://www.w3.org/1999/xlink" version="1.1" viewBox="0 0 1080 1080" xml:space="preserve">
<desc>Created with Fabric.js 5.2.4</desc>
<defs>
</defs>
<g transform="matrix(1 0 0 1 540 540)" id="dd3617f3-9056-4a96-99ae-41d809899242"  >
<rect style="stroke: none; stroke-width: 1; stroke-dasharray: none; stroke-linecap: butt; stroke-dashoffset: 0; stroke-linejoin: miter; stroke-miterlimit: 4; fill: rgb(255,255,255); fill-rule: nonzero; opacity: 1; visibility: hidden;" vector-effect="non-scaling-stroke"  x="-540" y="-540" rx="0" ry="0" width="1080" height="1080" />
</g>
<g transform="matrix(1 0 0 1 540 540)" id="d6d2ab38-e689-48c0-8a16-a4ce0f51bcfa"  >
</g>
<g transform="matrix(NaN NaN NaN NaN 0 0)"  >
<g style=""   >
		<g transform="matrix(1 0 0 1 0 0)"  >
<path style="stroke: none; stroke-width: 1; stroke-dasharray: none; stroke-linecap: butt; stroke-dashoffset: 0; stroke-linejoin: miter; stroke-miterlimit: 4; fill: rgb(0,0,0); fill-rule: nonzero; opacity: 1;" vector-effect="non-scaling-stroke"  transform=" translate(-12, -12)" d="M 12 2 C 6.477152501692066 2 2 6.477152501692066 2 12 C 2 17.522847498307932 6.477152501692066 22 12 22 C 17.522847498307932 22 22 17.522847498307932 22 12 C 21.993937629545222 6.479665567728202 17.520334432271802 2.0060623704547798 12.000000000000004 1.9999999999999982 z M 12 20 C 7.581722001353652 20 4 16.418277998646346 4 12 C 4 7.581722001353652 7.581722001353652 4 12 4 C 16.418277998646346 4 20 7.581722001353651 20 11.999999999999998 C 19.995040115451747 16.416221915644755 16.416221915644755 19.995040115451747 12 20 z" stroke-linecap="round" />
</g>
		<g transform="matrix(1 0 0 1 0 0.35)"  >
<path style="stroke: none; stroke-width: 1; stroke-dasharray: none; stroke-linecap: butt; stroke-dashoffset: 0; stroke-linejoin: miter; stroke-miterlimit: 4; fill: rgb(0,0,0); fill-rule: nonzero; opacity: 1;" vector-effect="non-scaling-stroke"  transform=" translate(-12, -12.35)" d="M 12 12.586 L 8.707 9.293 L 7.293000000000001 10.706999999999999 L 12 15.414 L 16.707 10.707 L 15.293000000000001 9.293000000000001 L 12 12.586 z" stroke-linecap="round" />
</g>
</g>
</g>
<g transform="matrix(NaN NaN NaN NaN 0 0)"  >
<g style=""   >
		<g transform="matrix(1 0 0 1 0 0)"  >
<path style="stroke: none; stroke-width: 1; stroke-dasharray: none; stroke-linecap: butt; stroke-dashoffset: 0; stroke-linejoin: miter; stroke-miterlimit: 4; fill: rgb(0,0,0); fill-rule: nonzero; opacity: 1;" vector-effect="non-scaling-stroke"  transform=" translate(-12, -12)" d="M 12 2 C 6.477152501692066 2 2 6.477152501692066 2 12 C 2 17.522847498307932 6.477152501692066 22 12 22 C 17.522847498307932 22 22 17.522847498307932 22 12 C 21.993937629545222 6.479665567728202 17.520334432271802 2.0060623704547798 12.000000000000004 1.9999999999999982 z M 12 20 C 7.581722001353652 20 4 16.418277998646346 4 12 C 4 7.581722001353652 7.581722001353652 4 12 4 C 16.418277998646346 4 20 7.581722001353651 20 11.999999999999998 C 19.995040115451747 16.416221915644755 16.416221915644755 19.995040115451747 12 20 z" stroke-linecap="round" />
</g>
		<g transform="matrix(1 0 0 1 0 0.35)"  >
<path style="stroke: none; stroke-width: 1; stroke-dasharray: none; stroke-linecap: butt; stroke-dashoffset: 0; stroke-linejoin: miter; stroke-miterlimit: 4; fill: rgb(0,0,0); fill-rule: nonzero; opacity: 1;" vector-effect="non-scaling-stroke"  transform=" translate(-12, -12.35)" d="M 12 12.586 L 8.707 9.293 L 7.293000000000001 10.706999999999999 L 12 15.414 L 16.707 10.707 L 15.293000000000001 9.293000000000001 L 12 12.586 z" stroke-linecap="round" />
</g>
</g>
</g>
<g transform="matrix(NaN NaN NaN NaN 0 0)"  >
<g style=""   >
		<g transform="matrix(1 0 0 1 0 0)"  >
<path style="stroke: none; stroke-width: 1; stroke-dasharray: none; stroke-linecap: butt; stroke-dashoffset: 0; stroke-linejoin: miter; stroke-miterlimit: 4; fill: rgb(0,0,0); fill-rule: nonzero; opacity: 1;" vector-effect="non-scaling-stroke"  transform=" translate(-12, -12)" d="M 12 2 C 6.477152501692066 2 2 6.477152501692066 2 12 C 2 17.522847498307932 6.477152501692066 22 12 22 C 17.522847498307932 22 22 17.522847498307932 22 12 C 21.993937629545222 6.479665567728202 17.520334432271802 2.0060623704547798 12.000000000000004 1.9999999999999982 z M 12 20 C 7.581722001353652 20 4 16.418277998646346 4 12 C 4 7.581722001353652 7.581722001353652 4 12 4 C 16.418277998646346 4 20 7.581722001353651 20 11.999999999999998 C 19.995040115451747 16.416221915644755 16.416221915644755 19.995040115451747 12 20 z" stroke-linecap="round" />
</g>
		<g transform="matrix(1 0 0 1 0 0.35)"  >
<path style="stroke: none; stroke-width: 1; stroke-dasharray: none; stroke-linecap: butt; stroke-dashoffset: 0; stroke-linejoin: miter; stroke-miterlimit: 4; fill: rgb(0,0,0); fill-rule: nonzero; opacity: 1;" vector-effect="non-scaling-stroke"  transform=" translate(-12, -12.35)" d="M 12 12.586 L 8.707 9.293 L 7.293000000000001 10.706999999999999 L 12 15.414 L 16.707 10.707 L 15.293000000000001 9.293000000000001 L 12 12.586 z" stroke-linecap="round" />
</g>
</g>
</g>
<g transform="matrix(NaN NaN NaN NaN 0 0)"  >
<g style=""   >
		<g transform="matrix(1 0 0 1 0 0)"  >
<path style="stroke: none; stroke-width: 1; stroke-dasharray: none; stroke-linecap: butt; stroke-dashoffset: 0; stroke-linejoin: miter; stroke-miterlimit: 4; fill: rgb(0,0,0); fill-rule: nonzero; opacity: 1;" vector-effect="non-scaling-stroke"  transform=" translate(-12, -12)" d="M 12 2 C 6.477152501692066 2 2 6.477152501692066 2 12 C 2 17.522847498307932 6.477152501692066 22 12 22 C 17.522847498307932 22 22 17.522847498307932 22 12 C 21.993937629545222 6.479665567728202 17.520334432271802 2.0060623704547798 12.000000000000004 1.9999999999999982 z M 12 20 C 7.581722001353652 20 4 16.418277998646346 4 12 C 4 7.581722001353652 7.581722001353652 4 12 4 C 16.418277998646346 4 20 7.581722001353651 20 11.999999999999998 C 19.995040115451747 16.416221915644755 16.416221915644755 19.995040115451747 12 20 z" stroke-linecap="round" />
</g>
		<g transform="matrix(1 0 0 1 0 0.35)"  >
<path style="stroke: none; stroke-width: 1; stroke-dasharray: none; stroke-linecap: butt; stroke-dashoffset: 0; stroke-linejoin: miter; stroke-miterlimit: 4; fill: rgb(0,0,0); fill-rule: nonzero; opacity: 1;" vector-effect="non-scaling-stroke"  transform=" translate(-12, -12.35)" d="M 12 12.586 L 8.707 9.293 L 7.293000000000001 10.706999999999999 L 12 15.414 L 16.707 10.707 L 15.293000000000001 9.293000000000001 L 12 12.586 z" stroke-linecap="round" />
</g>
</g>
</g>
<g transform="matrix(7.41 0 0 7.41 540 540)"  >
<polygon style="stroke: none; stroke-width: 1; stroke-dasharray: none; stroke-linecap: butt; stroke-dashoffset: 0; stroke-linejoin: miter; stroke-miterlimit: 4; fill: rgb(0,0,0); fill-rule: nonzero; opacity: 1;" vector-effect="non-scaling-stroke"  points="0,0.23 -3.29,-3.06 -4.71,-1.65 0,3.06 4.71,-1.65 3.29,-3.06 0,0.23 " />
</g>
</svg>